<?xml version="1.0" standalone="no"?>
<!DOCTYPE svg PUBLIC "-//W3C//DTD SVG 20010904//EN"
 "http://www.w3.org/TR/2001/REC-SVG-20010904/DTD/svg10.dtd">
<svg version="1.0" xmlns="http://www.w3.org/2000/svg"
 width="233.000000pt" height="233.000000pt" viewBox="0 0 233.000000 233.000000"
 preserveAspectRatio="xMidYMid meet">
<metadata>
Created by potrace 1.14, written by Peter Selinger 2001-2017
</metadata>
<g transform="translate(0.000000,233.000000) scale(0.100000,-0.100000)"
fill="#000000" stroke="none">
<path d="M940 1794 c-30 -8 -63 -16 -74 -19 -33 -8 -109 -47 -166 -86 -56 -38
-165 -140 -181 -171 -10 -19 -12 -18 53 -22 17 -1 24 -9 28 -30 5 -29 6 -29
42 30 53 85 92 124 125 125 15 0 44 3 63 5 44 6 380 7 440 1 25 -2 55 -5 66
-6 28 -1 66 -40 117 -120 37 -57 42 -62 46 -40 4 32 13 36 67 33 51 -2 62 -10
69 -44 6 -30 -9 -47 -47 -55 l-30 -7 27 -28 c14 -15 27 -39 28 -54 1 -14 6
-27 10 -27 4 0 29 18 55 40 l46 41 -33 67 c-85 174 -235 300 -421 358 -75 23
-258 28 -330 9z"/>
<path d="M1980 1633 c-47 -8 -125 -21 -175 -29 -49 -9 -100 -16 -112 -15 -43
2 -23 -16 66 -58 l89 -41 106 66 c106 66 158 82 119 37 -57 -67 -137 -177
-139 -190 -2 -14 10 -59 26 -98 5 -11 14 -37 21 -58 18 -51 25 -37 54 108 6
29 13 56 24 93 5 17 8 32 6 32 -3 0 0 12 6 28 6 15 13 41 16 57 3 17 8 32 11
35 13 9 12 30 0 28 -7 -2 -12 2 -11 8 2 14 -4 13 -107 -3z"/>
<path d="M879 1596 c-2 -2 -31 -6 -63 -9 -60 -5 -60 -6 -116 -74 -23 -28 -50
-71 -50 -81 0 -4 182 -8 405 -9 l405 0 -17 28 c-51 79 -86 121 -110 131 -25
10 -444 23 -454 14z"/>
<path d="M500 1466 c-18 -18 -10 -35 25 -52 41 -19 49 -14 51 26 1 25 -3 29
-32 32 -19 2 -39 -1 -44 -6z"/>
<path d="M1529 1468 c0 -2 -2 -18 -5 -35 -4 -37 2 -39 53 -21 24 9 33 18 33
35 0 20 -5 23 -40 23 -22 0 -40 -1 -41 -2z"/>
<path d="M454 1393 c-3 -10 -9 -25 -13 -33 -5 -9 -11 -29 -15 -45 -3 -17 -9
-41 -12 -55 -11 -44 -13 -203 -5 -242 7 -32 6 -38 -8 -39 -27 -2 -46 2 -52 13
-4 6 -9 6 -12 1 -4 -6 17 -33 44 -60 137 -138 351 -166 599 -78 76 27 293 135
286 142 -2 2 -119 4 -260 4 -141 0 -256 3 -256 7 0 4 114 7 252 6 139 0 268 3
286 7 18 4 42 17 53 30 10 12 19 19 19 14 0 -4 12 4 26 19 15 14 31 26 36 26
5 0 43 27 84 61 70 57 74 63 74 100 0 25 -4 38 -10 34 -6 -4 -8 -10 -5 -15 10
-16 -49 -70 -77 -72 -16 -1 -28 -7 -28 -12 0 -5 -3 -6 -7 -3 -3 4 -11 3 -17
-2 -10 -8 -65 -14 -108 -12 -24 1 -23 27 1 47 10 9 63 33 117 53 54 21 99 41
101 47 5 15 -67 59 -101 61 -47 3 -671 3 -752 0 -56 -2 -79 -8 -106 -26 -38
-26 -46 -51 -16 -51 10 0 37 -9 61 -19 23 -10 64 -27 90 -37 52 -20 90 -67 63
-77 -14 -6 -83 1 -106 10 -8 3 -23 5 -32 4 -10 -1 -18 3 -18 9 0 6 -4 9 -8 6
-13 -8 -66 22 -81 45 -10 16 -10 23 -1 29 8 5 7 9 -4 13 -17 7 -21 -20 -16
-101 6 -120 4 -182 -7 -186 -22 -9 -26 14 -28 161 -2 140 -2 145 21 168 32 32
30 41 -7 54 -40 14 -39 14 -45 -6z m904 -117 c-16 -6 -43 -26 -60 -43 l-33
-30 -216 1 -216 1 -42 38 c-22 20 -35 37 -29 37 7 0 27 -12 43 -28 l30 -27
218 1 217 0 28 26 c24 24 49 35 77 36 6 0 -2 -5 -17 -12z m-603 -131 c39 -2
187 -4 330 -6 143 -1 235 -5 205 -8 -65 -8 -524 -5 -559 3 -13 3 -54 6 -91 7
-38 1 -74 5 -82 10 -7 5 19 6 57 3 39 -3 102 -7 140 -9z m-145 -46 c0 -4 -7
-9 -15 -13 -9 -3 -15 0 -15 8 0 7 7 13 15 13 8 0 15 -4 15 -8z"/>
<path d="M1707 1197 c-36 -50 -54 -71 -150 -180 -49 -56 -146 -151 -184 -181
-14 -12 -35 -30 -47 -41 -33 -32 -134 -105 -146 -105 -5 0 -10 -4 -10 -8 0 -8
-146 -86 -152 -81 -2 1 -14 -3 -27 -10 -13 -7 -35 -15 -50 -17 -14 -3 -35 -6
-46 -9 -11 -2 -55 -4 -98 -4 -50 -1 -76 -5 -72 -11 4 -6 10 -8 15 -5 4 3 13
-1 19 -9 6 -7 32 -19 56 -26 25 -7 48 -17 51 -21 3 -5 16 -9 30 -9 14 0 34 -5
45 -11 27 -14 224 -14 280 1 142 37 250 95 337 182 50 49 132 168 132 191 0 8
7 20 15 27 8 7 15 21 15 32 0 11 4 27 10 37 5 10 12 31 15 47 11 46 16 220 7
242 -6 18 -11 15 -45 -31z"/>
<path d="M1340 1225 c-7 -9 -11 -17 -9 -20 3 -2 10 5 17 15 14 24 10 26 -8 5z"/>
<path d="M756 1215 c4 -8 11 -15 16 -15 6 0 5 6 -2 15 -7 8 -14 15 -16 15 -2
0 -1 -7 2 -15z"/>
</g>
</svg>
